<?xml version="1.0" encoding="UTF-8"?>
<svg width="48px" height="48px" viewBox="0 0 48 48" version="1.1" xmlns="http://www.w3.org/2000/svg" xmlns:xlink="http://www.w3.org/1999/xlink">
    <!-- Generator: Sketch 50.2 (55047) - http://www.bohemiancoding.com/sketch -->
    <title>icn_plans_bathroom@2x</title>
    <desc>Created with Sketch.</desc>
    <defs></defs>
    <g id="Landing-Q2-2018-(finalisation)" stroke="none" stroke-width="1" fill="none" fill-rule="evenodd">
        <g id="Mackbook-13" transform="translate(-450.000000, -2721.000000)">
            <g id="icn_plans_bathroom" transform="translate(450.000000, 2721.000000)">
                <rect id="Rectangle-path" x="0" y="0" width="48" height="48"></rect>
                <path d="M18,40 C18,41.7 16.7,43 15,43 L10,43 C7.8,43 6,44.8 6,47 L47,47 C47,44.8 45.2,43 43,43 C41.3,43 40,41.7 40,40 L40,34 L41,34 C44.3,34 47,31.3 47,28 L47,6 L37,6 L37,22" id="Shape" stroke="#8C9AA3" stroke-width="2"></path>
                <path d="M47,6 L47,4 C47,2.3 45.7,1 44,1 L40,1 C38.3,1 37,2.3 37,4 L37,6 L47,6 Z" id="Shape" stroke="#8C9AA3" stroke-width="2" fill="#FFFFFF"></path>
                <path d="M34,25 C34,33.3 27.3,40 19,40 C10.7,40 4,33.3 4,25 L34,25 Z" id="Shape" stroke="#8C9AA3" stroke-width="2" fill="#FFFFFF"></path>
                <path d="M11,0 C11,2.8 8.8,5 6,5" id="Shape" stroke="#9FA8DA" stroke-width="2"></path>
                <path d="M11,0 C11,2.8 13.2,5 16,5" id="Shape" stroke="#8C9AA3" stroke-width="2"></path>
                <path d="M11,10 C11,7.2 8.8,5 6,5" id="Shape" stroke="#8C9AA3" stroke-width="2"></path>
                <path d="M11,10 C11,7.2 13.2,5 16,5" id="Shape" stroke="#8C9AA3" stroke-width="2"></path>
                <path d="M7,28 L9,28" id="Shape" stroke="#8C9AA3" stroke-width="2"></path>
                <path d="M11,28 L13,28" id="Shape" stroke="#8C9AA3" stroke-width="2"></path>
                <path d="M15,28 L17,28" id="Shape" stroke="#8C9AA3" stroke-width="2"></path>
                <path d="M37,6 L47,6" id="Shape" stroke="#8C9AA3" stroke-width="2"></path>
                <path d="M37,22 L37,23 C37,24.1 36.1,25 35,25 L3,25 C1.9,25 1,24.1 1,23 L1,22 C1,20.9 1.9,20 3,20 L35,20 C36.1,20 37,20.9 37,22 Z" id="Shape" stroke="#8C9AA3" stroke-width="2" fill="#FFFFFF"></path>
                <path d="M26,9 C26,12.9 22.9,16 19,16" id="Shape" stroke="#8C9AA3" stroke-width="2"></path>
                <path d="M26,9 C26,12.9 29.1,16 33,16" id="Shape" stroke="#8C9AA3" stroke-width="2"></path>
                <path d="M26,23 C26,19.1 22.9,16 19,16" id="Shape" stroke="#8C9AA3" stroke-width="2"></path>
                <path d="M26,23 C26,19.1 29.1,16 33,16" id="Shape" stroke="#8C9AA3" stroke-width="2"></path>
            </g>
        </g>
    </g>
</svg>