<?xml version="1.0" encoding="UTF-8"?>
<svg width="48px" height="48px" viewBox="0 0 48 48" version="1.1" xmlns="http://www.w3.org/2000/svg" xmlns:xlink="http://www.w3.org/1999/xlink">
    <!-- Generator: Sketch 50.2 (55047) - http://www.bohemiancoding.com/sketch -->
    <title>icn_plans_bedroom@2x</title>
    <desc>Created with Sketch.</desc>
    <defs></defs>
    <g id="Landing-Q2-2018-(finalisation)" stroke="none" stroke-width="1" fill="none" fill-rule="evenodd">
        <g id="Mackbook-13" transform="translate(-873.000000, -2721.000000)">
            <g id="icn_plans_bedroom" transform="translate(873.000000, 2721.000000)">
                <rect id="Rectangle-path" x="0" y="0" width="48" height="48"></rect>
                <path d="M5,13 C5,15.8 2.8,18 0,18" id="Shape" stroke="#8C9AA3" stroke-width="2"></path>
                <path d="M5,13 C5,15.8 7.2,18 10,18" id="Shape" stroke="#8C9AA3" stroke-width="2"></path>
                <path d="M5,23 C5,20.2 2.8,18 0,18" id="Shape" stroke="#8C9AA3" stroke-width="2"></path>
                <path d="M5,23 C5,20.2 7.2,18 10,18" id="Shape" stroke="#8C9AA3" stroke-width="2"></path>
                <path d="M20,0 C20,3.9 16.9,7 13,7" id="Shape" stroke="#8C9AA3" stroke-width="2"></path>
                <path d="M20,0 C20,3.9 23.1,7 27,7" id="Shape" stroke="#8C9AA3" stroke-width="2"></path>
                <path d="M20,14 C20,10.1 16.9,7 13,7" id="Shape" stroke="#8C9AA3" stroke-width="2"></path>
                <path d="M20,14 C20,10.1 23.1,7 27,7" id="Shape" stroke="#8C9AA3" stroke-width="2"></path>
                <path d="M47,18.5 L47,39 L44,39 L44,18.5 C44,17.7 44.7,17 45.5,17 C46.3,17 47,17.7 47,18.5 Z" id="Shape" stroke="#8C9AA3" stroke-width="2"></path>
                <path d="M44,33 L44,39 L1,39 L1,33 C1,31.9 1.9,31 3,31 L42,31 C42.4,31 42.8,31.1 43.1,31.3 C43.6,31.7 44,32.3 44,33 Z" id="Shape" stroke="#8C9AA3" stroke-width="2"></path>
                <rect id="Rectangle-path" stroke="#8C9AA3" stroke-width="2" x="1" y="39" width="46" height="5"></rect>
                <path d="M1,43 L1,47" id="Shape" stroke="#8C9AA3" stroke-width="2" stroke-linecap="round"></path>
                <path d="M47,44 L47,47" id="Shape" stroke="#8C9AA3" stroke-width="2" stroke-linecap="round"></path>
                <path d="M31,31 L4,31 C4,30.2 4.3,29.4 4.9,28.9 C5.4,28.3 6.2,28 7,28 L28,28 C29.7,28 31,29.3 31,31 Z" id="Shape" stroke="#8C9AA3" stroke-width="2" stroke-linecap="round"></path>
                <path d="M44,29.2 C44,30 43.7,30.7 43.1,31.3 L43.1,31.3 C42.8,31.1 42.4,31 42,31 L33,31 C32.1,29.8 32.2,28.1 33.2,27 L36,24.2 C37.2,23 39.1,23 40.2,24.2 L43,27 C43.7,27.6 44,28.4 44,29.2 Z" id="Shape" stroke="#8C9AA3" stroke-width="2" stroke-linecap="round"></path>
            </g>
        </g>
    </g>
</svg>