<?xml version="1.0" encoding="UTF-8"?>
<svg width="48px" height="48px" viewBox="0 0 48 48" version="1.1" xmlns="http://www.w3.org/2000/svg" xmlns:xlink="http://www.w3.org/1999/xlink">
    <!-- Generator: Sketch 50.2 (55047) - http://www.bohemiancoding.com/sketch -->
    <title>icn_plans_kitchen@2x</title>
    <desc>Created with Sketch.</desc>
    <defs></defs>
    <g id="Landing-Q2-2018-(finalisation)" stroke="none" stroke-width="1" fill="none" fill-rule="evenodd">
        <g id="Mackbook-13" transform="translate(-309.000000, -2721.000000)">
            <g id="icn_plans_kitchen" transform="translate(306.000000, 2721.000000)">
                <rect id="Rectangle-path" x="0" y="0" width="48" height="48"></rect>
                <path d="M9,36 C9,39.3 6.3,42 3,42" id="Shape" stroke="#8C9AA3" stroke-width="2"></path>
                <path d="M9,36 C9,39.3 11.7,42 15,42" id="Shape" stroke="#8C9AA3" stroke-width="2"></path>
                <path d="M9,48 C9,44.7 6.3,42 3,42" id="Shape" stroke="#8C9AA3" stroke-width="2"></path>
                <path d="M9,48 C9,44.7 11.7,42 15,42" id="Shape" stroke="#8C9AA3" stroke-width="2"></path>
                <path d="M50,24 C50,26 48,27 48,29 C48,31 49,31 49,33 L49,44 C49,45.7 47.7,47 46,47 L36,47 C34.3,47 33,45.7 33,44 L33,33 C33,31 34,31 34,29 C34,28.4 33.8,27.9 33.6,27.4 C33.4,27 33.1,26.6 32.8,26.2 C32.4,25.6 32,24.9 32,24 L32,23 C32,20.8 33.2,18.9 34.9,17.8 C35.2,17.6 35.5,17.5 35.9,17.3 C36.5,17.1 37.2,17 38,17 L44,17 C47.3,17 50,19.7 50,23 L50,24 Z" id="Shape" stroke="#8C9AA3" stroke-width="2" fill="#FFFFFF"></path>
                <path d="M24,20 C21.2,20 19,22.2 19,25 C19,22.2 16.8,20 14,20 C16.8,20 19,17.8 19,15 C19,17.8 21.2,20 24,20 Z" id="Shape" stroke="#8C9AA3" stroke-width="2"></path>
                <path d="M36,44 L46,44" id="Shape" stroke="#8C9AA3" stroke-width="2"></path>
                <path d="M45,23 L47,23" id="Shape" stroke="#8C9AA3" stroke-width="2"></path>
                <path d="M42,23 L44,23" id="Shape" stroke="#8C9AA3" stroke-width="2"></path>
                <path d="M41,23 L35,23" id="Shape" stroke="#8C9AA3" stroke-width="2"></path>
                <rect id="Rectangle-path" stroke="#8C9AA3" stroke-width="2" x="38" y="13" width="6" height="4"></rect>
                <rect id="Rectangle-path" stroke="#8C9AA3" stroke-width="2" x="39" y="10" width="4" height="3"></rect>
                <path d="M39,11.1 L39,13 L38,13 L38,17 C37.2,17 36.5,17.1 35.9,17.3 C34.8,11 29.3,6.1 22.6,6.1 C15.1,6.1 9.1,12.2 9.1,19.6 C9.1,27.1 15.1,33.1 22.6,33.1 C27.1,33.1 31.1,30.9 33.6,27.4 C33.9,27.9 34,28.4 34,29 C34,31 33,31 33,33 L33,34.9 C30,36.9 26.5,38.1 22.6,38.1 C12.4,38.1 4.1,29.8 4.1,19.6 C4.1,9.4 12.4,1.1 22.6,1.1 C29.7,1.1 35.9,5.1 39,11.1 Z" id="Shape" stroke="#8C9AA3" stroke-width="2"></path>
            </g>
        </g>
    </g>
</svg>