<?xml version="1.0" encoding="UTF-8"?>
<svg width="48px" height="48px" viewBox="0 0 48 48" version="1.1" xmlns="http://www.w3.org/2000/svg" xmlns:xlink="http://www.w3.org/1999/xlink">
    <!-- Generator: Sketch 50.2 (55047) - http://www.bohemiancoding.com/sketch -->
    <title>icn_plans_fridge@2x</title>
    <desc>Created with Sketch.</desc>
    <defs></defs>
    <g id="Landing-Q2-2018-(finalisation)" stroke="none" stroke-width="1" fill="none" fill-rule="evenodd">
        <g id="Mackbook-13" transform="translate(-732.000000, -2721.000000)">
            <g id="icn_plans_fridge" transform="translate(732.000000, 2721.000000)">
                <rect id="Rectangle-path" x="0" y="0" width="48" height="48"></rect>
                <path d="M42,7 C42,10.3 39.3,13 36,13" id="Shape" stroke="#8C9AA3" stroke-width="2"></path>
                <path d="M42,7 C42,10.3 44.7,13 48,13" id="Shape" stroke="#8C9AA3" stroke-width="2"></path>
                <path d="M42,19 C42,15.7 39.3,13 36,13" id="Shape" stroke="#8C9AA3" stroke-width="2"></path>
                <path d="M42,19 C42,15.7 44.7,13 48,13" id="Shape" stroke="#8C9AA3" stroke-width="2"></path>
                <path d="M36,44.8 C36,46 35,47 33.8,47 L13.2,47 C12,47 11,46 11,44.8 L11,3.2 C11,2 12,1 13.2,1 L33.9,1 C35,1 36,2 36,3.2 L36,44.8 Z" id="Shape" stroke="#8C9AA3" stroke-width="2" stroke-linejoin="round"></path>
                <path d="M11.6,18 L36.5,18" id="Shape" stroke="#8C9AA3" stroke-width="2" stroke-linejoin="round"></path>
                <path d="M16,6 L16,15" id="Shape" stroke="#8C9AA3" stroke-width="2" stroke-linejoin="round"></path>
                <path d="M16,22 L16,38" id="Shape" stroke="#8C9AA3" stroke-width="2" stroke-linejoin="round"></path>
                <path d="M6,24 C6,27.3 3.3,30 0,30" id="Shape" stroke="#8C9AA3" stroke-width="2"></path>
                <path d="M6,24 C6,27.3 8.7,30 12,30" id="Shape" stroke="#8C9AA3" stroke-width="2"></path>
                <path d="M6,36 C6,32.7 3.3,30 0,30" id="Shape" stroke="#8C9AA3" stroke-width="2"></path>
                <path d="M6,36 C6,32.7 8.7,30 12,30" id="Shape" stroke="#8C9AA3" stroke-width="2"></path>
            </g>
        </g>
    </g>
</svg>