<?xml version="1.0" encoding="UTF-8"?>
<svg width="47px" height="46px" viewBox="0 0 47 46" version="1.1" xmlns="http://www.w3.org/2000/svg" xmlns:xlink="http://www.w3.org/1999/xlink">
    <!-- Generator: Sketch 50.2 (55047) - http://www.bohemiancoding.com/sketch -->
    <title>icn_plans_standard@2x</title>
    <desc>Created with Sketch.</desc>
    <defs></defs>
    <g id="Landing-Q2-2018-(finalisation)" stroke="none" stroke-width="1" fill="none" fill-rule="evenodd">
        <g id="Mackbook-13" transform="translate(-168.000000, -2723.000000)">
            <g id="icn_plans_standard" transform="translate(168.000000, 2721.000000)">
                <rect id="Rectangle-path" x="0" y="0" width="48" height="48"></rect>
                <path d="M41,29.9 L41,44 C41,45.7 39.7,47 38,47 L10,47 C8.3,47 7,45.7 7,44 L7,29.9" id="Shape" stroke="#8C9AA3" stroke-width="2"></path>
                <path d="M26,30 L22,30 C20.3,30 19,31.3 19,33 L19,47 L29,47 L29,33 C29,31.3 27.7,30 26,30 Z" id="Shape" stroke="#8C9AA3" stroke-width="2"></path>
                <path d="M45.2,27.7 L43.8,29.1 C43,29.9 42,30.1 41,29.9 C40.5,29.8 39.9,29.5 39.5,29.1 L24,13.6 L17,20.6 L9.3,28.3 L8.5,29.1 C8.1,29.5 7.6,29.8 7,29.9 C6,30.1 5,29.8 4.2,29.1 L2.8,27.7 C1.6,26.5 1.6,24.6 2.8,23.5 L9,17.3 L16.3,10 L21.9,4.4 C23.1,3.2 25,3.2 26.1,4.4 L31.7,10 L41,19.3 L45.2,23.5 C46.3,24.6 46.3,26.5 45.2,27.7 Z" id="Shape" stroke="#8C9AA3" stroke-width="2"></path>
                <path d="M17,7 L17,9.3 L16.3,10 L9,17.3 L9,7 C9,5.3 10.3,4 12,4 L14,4 C15.7,4 17,5.3 17,7 Z" id="Shape" stroke="#8C9AA3" stroke-width="2"></path>
            </g>
        </g>
    </g>
</svg>